# xmcd
#
# Track frame offsets:
#	150
#	15386
#	32877
#	50909
#	72289
#	92700
#	105539
#	122198
#	144518
#	161202
#	179938
#	199574
#
# Disc length: 2902 seconds
# Revision: 0
# Processed by: cddbd v1.5.2PL0 Copyright (c) Steve Scherf et al.
# Submitted via: dBpowerAMP V12.0
#
DISCID=b00b540c
DTITLE=LK Potts - Gone West
DYEAR=2011
DGENRE=Country
TTITLE0=That-A-Way
TTITLE1=Cowboy Kind
TTITLE2=Home To Oregon
TTITLE3=Leaving Cheyenne
TTITLE4=The Ballad Of Poker Alice
TTITLE5=Hats
TTITLE6=Captains Of The Dream
TTITLE7=Hear Me Out
TTITLE8=3804
TTITLE9=High Sierra
TTITLE10=The Ballad Of Black Bart
TTITLE11=Our Last Walk
EXTD=
EXTT0=
EXTT1=
EXTT2=
EXTT3=
EXTT4=
EXTT5=
EXTT6=
EXTT7=
EXTT8=
EXTT9=
EXTT10=
EXTT11=
PLAYORDER=
